<svg width="24" height="24" viewBox="0 0 24 24" fill="none" xmlns="http://www.w3.org/2000/svg">
<g clip-path="url(#clip0_80_341)">
<path d="M3 12.0001H4M20 12.0001H21M5.6 5.6001L6.3 6.3001M18.4 5.6001L17.7 6.3001M8 12.0001C8 10.9392 8.42143 9.92182 9.17157 9.17167C9.92172 8.42152 10.9391 8.0001 12 8.0001C13.0609 8.0001 14.0783 8.42152 14.8284 9.17167C15.5786 9.92182 16 10.9392 16 12.0001" stroke="white" stroke-width="2" stroke-linecap="round" stroke-linejoin="round"/>
<path d="M12 4V3" stroke="white" stroke-width="2" stroke-linecap="round" stroke-linejoin="round"/>
<path d="M13 16L15 21H16L18 16" stroke="white" stroke-width="2" stroke-linecap="round" stroke-linejoin="round"/>
<path d="M6 16V19C6 19.5304 6.21071 20.0391 6.58579 20.4142C6.96086 20.7893 7.46957 21 8 21C8.53043 21 9.03914 20.7893 9.41421 20.4142C9.78929 20.0391 10 19.5304 10 19V16" stroke="white" stroke-width="2" stroke-linecap="round" stroke-linejoin="round"/>
</g>
<defs>
<clipPath id="clip0_80_341">
<rect width="24" height="24" fill="white"/>
</clipPath>
</defs>
</svg>
